<svg id="eWtxKDjzvk41" xmlns="http://www.w3.org/2000/svg" xmlns:xlink="http://www.w3.org/1999/xlink" viewBox="0 0 50 50" shape-rendering="geometricPrecision" text-rendering="geometricPrecision"><g transform="translate(-22.568703-84.631401)"><line x1="0" y1="-10.049049" x2="0" y2="10.049049" transform="translate(26.240422 109.636873)" fill="none" stroke="#801818" stroke-width="6"/><line x1="0" y1="-10.049049" x2="0" y2="10.049049" transform="matrix(.707107-.707107 0.707107 0.707107 32.486306 124.689277)" fill="none" stroke="#801818" stroke-width="6"/><line x1="0" y1="-10.049049" x2="0" y2="10.049049" transform="matrix(0-1 1 0 47.535394 130.9355)" fill="none" stroke="#801818" stroke-width="6"/><line x1="0" y1="-10.049049" x2="0" y2="10.049049" transform="matrix(.707107-.707107 0.707107 0.707107 52.603743 124.689277)" fill="none" stroke="#801818" stroke-width="6"/></g><g transform="matrix(-1 0 0-1 74.88416 131.106315)"><line x1="0" y1="-10.049049" x2="0" y2="10.049049" transform="translate(28.558026 106.100843)" fill="none" stroke="#801818" stroke-width="6"/><line x1="0" y1="-10.049049" x2="0" y2="10.049049" transform="matrix(.707107-.707107 0.707107 0.707107 34.801761 121.164184)" fill="none" stroke="#801818" stroke-width="6"/><line x1="0" y1="-10.049049" x2="0" y2="10.049049" transform="matrix(0-1 1 0 49.808312 127.404729)" fill="none" stroke="#801818" stroke-width="6"/><line x1="0" y1="-10.049049" x2="0" y2="10.049049" transform="matrix(.707107-.707107 0.707107 0.707107 54.896481 121.164184)" fill="none" stroke="#801818" stroke-width="6"/></g></svg>
